<svg width="112" height="16" viewBox="0 0 112 16" fill="none" xmlns="http://www.w3.org/2000/svg">
<path d="M82.432 0.73822H79.424C78.6992 0.73822 78.1439 0.929269 77.5696 1.62448C76.9953 2.31968 73.3207 6.76024 73.3207 6.76024V0.73822H69.1465V16.1283C69.1475 16.3598 69.2356 16.5816 69.3917 16.7454C69.5479 16.9091 69.7593 17.0015 69.9801 17.0026H73.3169V9.62598L76.9966 15.6573C77.5456 16.5581 78.0895 17.0026 79.3405 17.0026H82.7685L76.9157 7.40636L82.432 0.73822Z" fill="#8F90A6"/>
<path d="M64.7857 0.73822H55.4961V15.5458C55.4961 16.3565 56.255 17.0052 57.0621 17.0052H64.7857C65.0069 17.0045 65.2189 16.9121 65.3753 16.748C65.5317 16.5839 65.6199 16.3616 65.6205 16.1296V14.0267H60.2914C60.1248 14.025 59.9655 13.9543 59.8483 13.8301C59.731 13.7059 59.6653 13.5382 59.6653 13.3634V9.94174H64.4151V6.97119H59.6653V3.71673H65.6205V1.62049C65.6199 1.38848 65.5317 1.16616 65.3753 1.0021C65.2189 0.838033 65.0069 0.745553 64.7857 0.744853" fill="#8F90A6"/>
<path d="M94.1346 0.73822H84.8438V15.5458C84.8438 16.3565 85.6027 17.0052 86.4097 17.0052H94.1346C94.3557 17.0045 94.5675 16.912 94.7237 16.7479C94.88 16.5838 94.9679 16.3615 94.9682 16.1296V14.0267H89.6391C89.4726 14.0246 89.3137 13.9538 89.1967 13.8297C89.0798 13.7055 89.0142 13.5379 89.0142 13.3634V9.94174H93.764V6.97119H89.0142V3.71673H94.9682V1.62049C94.9679 1.3886 94.88 1.16628 94.7237 1.00218C94.5675 0.838077 94.3557 0.745555 94.1346 0.744853" fill="#8F90A6"/>
<path d="M35.0063 0.73822H30.832V16.1283C30.8334 16.36 30.9218 16.5817 31.0781 16.7454C31.2344 16.9091 31.446 17.0015 31.6669 17.0026H35.0038L35.0063 0.73822Z" fill="#8F90A6"/>
<path d="M26.2042 0.73822H16.9121V15.5458C16.9121 16.391 17.6774 17.0052 18.4794 17.0052H26.2042C26.4252 17.0042 26.6369 16.9116 26.793 16.7475C26.9492 16.5835 27.0372 16.3614 27.0378 16.1296V14.0267H21.7062C21.5397 14.0246 21.3808 13.9538 21.2639 13.8297C21.1469 13.7055 21.0813 13.5379 21.0813 13.3634V9.94174H25.8298V6.97119H21.0838V3.71673H27.0378V1.62049C27.0372 1.3887 26.9492 1.16659 26.793 1.00256C26.6369 0.838536 26.4252 0.745903 26.2042 0.744853" fill="#8F90A6"/>
<path d="M12.6991 0.73822H8.52486V6.97385H4.88188V0.73822H0.0410156V1.3777C0.24319 1.46897 0.414706 1.6216 0.533503 1.81595C0.652299 2.0103 0.712942 2.23748 0.70763 2.46827V16.9999H4.88188V9.94439H8.52992V16.9999H12.7042L12.6991 0.73822Z" fill="#8F90A6"/>
<path d="M51.2834 0.73822V16.1283C51.2824 16.3598 51.1943 16.5816 51.0382 16.7454C50.8821 16.9091 50.6706 17.0015 50.4499 17.0026H47.8897L42.2582 7.68232C42.3359 8.25985 42.3748 8.84239 42.3746 9.42564V17.0026H39.2578V0.73822H41.2817C42.3139 0.73822 43.0652 1.18533 43.6054 2.07689C44.0645 2.83313 48.3223 9.86081 48.3223 9.86081C48.3223 9.86081 48.1692 9.38186 48.1692 8.09891V0.73822H51.2834Z" fill="#8F90A6"/>
<path d="M111.185 0.73822V1.3777C110.985 1.47249 110.817 1.62609 110.699 1.81975C110.582 2.01341 110.521 2.23875 110.523 2.46827V16.1256C110.523 16.3568 110.436 16.5786 110.28 16.7425C110.125 16.9063 109.914 16.9989 109.693 16.9999H107.137L101.504 7.67967C101.582 8.2572 101.621 8.83974 101.621 9.42299V16.9999H98.5039V0.73822H100.528C101.559 0.73822 102.311 1.18533 102.851 2.07689C103.311 2.83312 107.567 9.86081 107.567 9.86081C107.567 9.86081 107.415 9.38186 107.415 8.09891V0.73822H111.185Z" fill="#8F90A6"/>
</svg>
